/* XPM */
static char *b89f8f5c333b41d4bc1c8d77e2a7f79bvLOqANhxMQIZNhMJ[] = {
/* columns rows colors chars-per-pixel */
"64 64 145 2 ",
"   c #202020",
".  c #2C2C2C",
"X  c gray22",
"o  c #3D3838",
"O  c #4C2725",
"+  c #402E2D",
"@  c #552826",
"#  c #593A39",
"$  c #743C39",
"%  c #484848",
"&  c #4A4848",
"*  c #5F4847",
"=  c gray33",
"-  c #614847",
";  c #664846",
":  c #705250",
">  c #765150",
",  c #646464",
"<  c #706261",
"1  c gray44",
"2  c #7D7C7B",
"3  c #7C7C7C",
"4  c #7D7C7C",
"5  c #91322D",
"6  c #A13A34",
"7  c #B33831",
"8  c #C63E36",
"9  c #CD3F37",
"0  c #DF433A",
"q  c #E64137",
"w  c #E2463D",
"e  c #E5463C",
"r  c #ED4238",
"t  c #F04339",
"y  c #F2443A",
"u  c #F7443A",
"i  c #FB453A",
"p  c #FF453A",
"a  c #FD473C",
"s  c #FA483D",
"d  c #FB483D",
"f  c #F8493E",
"g  c #FD483D",
"h  c #81504E",
"j  c #85514D",
"k  c #8D504C",
"l  c #825F5D",
"z  c #B24741",
"x  c #B94640",
"c  c #B9544F",
"v  c #9B706E",
"b  c #887777",
"n  c #8A7776",
"m  c #807B7A",
"M  c #907573",
"N  c #AD6965",
"B  c #AF6964",
"V  c #B16763",
"C  c #BE706B",
"Z  c #AD7A77",
"A  c #AA7B79",
"S  c #B17774",
"D  c #B07875",
"F  c #DA564F",
"G  c #DC554D",
"H  c #CC5C56",
"J  c #C85E58",
"K  c #D55851",
"L  c #D05A54",
"P  c #D95E57",
"I  c #F24B41",
"U  c #F74B41",
"Y  c #F54C43",
"T  c #F64C42",
"R  c #F24E45",
"E  c #FA4B41",
"W  c #EE5148",
"Q  c #E9544B",
"!  c #E9544C",
"~  c #EE554C",
"^  c #F3554B",
"/  c #F2564D",
"(  c #F95349",
")  c #F6584F",
"_  c #E35850",
"`  c #EE5A52",
"'  c #EB5E56",
"]  c #F45D54",
"[  c #C4605A",
"{  c #CF655F",
"}  c #D5615B",
"|  c #D4625C",
" . c #DE625B",
".. c #E5655E",
"X. c #CE6560",
"o. c #C36C67",
"O. c #C46C67",
"+. c #C16E69",
"@. c #D26C66",
"#. c #DD6F69",
"$. c #C77570",
"%. c #D37A75",
"&. c #D17D78",
"*. c #E26963",
"=. c #B8807E",
"-. c #8F8B8A",
";. c #8D8C8B",
":. c gray55",
">. c #958786",
",. c #9F8180",
"<. c #9A8483",
"1. c #998584",
"2. c #918989",
"3. c #928988",
"4. c #989898",
"5. c #B18683",
"6. c #BF908D",
"7. c #B59A99",
"8. c #B0A09F",
"9. c #ADA3A2",
"0. c #AAA6A6",
"q. c gray66",
"w. c #B4B4B4",
"e. c #CB8480",
"r. c #C58A86",
"t. c #C48B89",
"y. c #C08F8D",
"u. c #CD928F",
"i. c #F7918C",
"p. c #CCABAA",
"a. c #C9B1B0",
"s. c #C8B2B1",
"d. c #C3BBBB",
"f. c #C2BCBB",
"g. c #C1BFBF",
"h. c #E9AAA6",
"j. c #E3C0BE",
"k. c #C0C0C0",
"l. c #D5C3C2",
"z. c #D0D0D0",
"x. c gainsboro",
"c. c #EFD3D2",
"v. c #EFD7D6",
"b. c #EDE7E7",
"n. c #ECECEC",
/* pixels */
"= = = = = = = = = = % x.z.z.z.k.z.z.z.z.z.z.k.z.z.z.:.  X :.k.w.:.q.:.:.:.:.:.:.q.= X   X 1 :.:.:.:.:.:.3 1 , % % % % % % % % % ",
":.:.:.:.:.:.:.:.  = % x.z.k.w.z.w.z.k.w.z.k.k.w.z.:.,   X q.x.q.:.q.:.q.:.q.:.q.:.= X   X :.x.x.x.x.x.x.k.w.q.:.:.:.:.:.:.:.:.:.",
"z.x.z.z.w.q.:.:.  = % x.z.q.q.q.q.:.q.q.q.q.4.q.q.3 =   X :.k.:.:.:.q.q.q.q.:.:.1 = X   X :.x.x.k.k.k.z.x.x.x.x.x.z.z.z.z.z.z.z.",
"q.q.q.q.q.q.3 1   = % n.k.4.q.q.q.q.q.q.4.q.:.q.q.1 =   X % q.:.q.q.:.:.q.:.q.1 = = X   X :.x.w.q.:.q.:.q.q.q.:.:.q.:.q.:.q.:.4.",
"w.4.q.4.q.:.3 1   % % n.z.q.:.q.4.q.:.4.4.4.:.4.q.:.=   X % 3 :.:.q.:.q.q.:.q.1 X X X   X :.x.w.:.q.:.4.:.:.:.q.:.:.4.4.q.4.:.q.",
"w.w.3 w.:.4., =   X % n.z.:.4.:.q.q.q.:.3 :.4.q.:., =   X % % :.q.q.q.:.:.:.q.1 X X X . X :.x.w.q.:.4.3 q.4.3 :.q.:.q.q.:.3 q.4.",
"4.q.q.4.4.1 % %   . % k.k.q.4.q.:.q.:.4.:.4.:.:.q.1 =     % = % 3 X X X X X X X X X   . X 3 x.x.:.q.:.3 4.3 4.:.q.:.4.3 q.q.3 :.",
":.:.:.:.1 = % %   . % q.n.q.q.q.:.:.4.:.:.:.:.q.:.= 3 .   X % X X X X X X X X X       % % % k.z.:.:.:.4.4.4.4.:.:.q.:.q.q.:.q.:.",
"1 1 1 1 = % X X   . % :.x.:.q.:.4.3 :.:.q.:.q.:.q.1 = .   X % X . .           . . . . % = % k.w.:.q.:.q.:.:.:.1 1 , , , , , , , ",
"= = % % %         . % 1 x.q.:.4.3 3 3 q.4.:.:.3 :.1 , X   X % % % % 1 3 :.q.q.q.q.4.1 X = % w.:.1 1 , , , = = = = % % % % % % % ",
"          . . . . X = % x.z.:.:.:.4.4.:.:.q.3 :.q.:.= X   X % 1 q.q.x.x.n.x.z.z.4.1 =   = % :.1 , , = % % % X X X X X . . . . . ",
". . . . . . . . . X = % q.z.:.q.:.3 :.q.:.:.4.:.:.1 = X   . X q.k.x.z.w.:.q.:.q.:.1 X   X X X X X X X X X X X . .               ",
"X X X X X X X X X X = % :.z.q.:.q.4.:.3 :.3 :.q.:.= = X   . % q.x.k.q.:.:.:.:.:.:.= X   X . . . . . . . . . . X X X X X X X X X ",
"= % X X X X X X X X = % 1 k.:.q.4.:.q.4.q.:.q.:.q.= 1 %   . % q.n.q.:.:.q.:.q.:.q.= X   X % = = = =   % % % % % % % % % % % % % ",
"4.4.4.4.4.4.4.4.4..   = % k.k.4.:.:.4.4.3 :.:.:.:.1 = =     % q.n.:.:.q.q.:.q.:.:.= X   X 1 q.x.x.= % = 3 4.4.4.4.4.4.4.4.4.4.4.",
"z.z.z.z.z.z.w.w.1 X   = % :.k.:.q.:.3 :.:.:.q.:.1 :.1 %     % q.z.q.q.:.:.q.:.q.:.= X   X q.x.k.q.  % 3 k.x.x.x.x.x.x.x.x.x.x.x.",
"q.4.:.q.:.q.q.1 1 X   = % 1 4.q.:.q.q.:.q.1 :.1 = 1 = %     % q.z.q.:.1 1 1 1 = = = X   X x.k.q.:.  % 4.x.z.w.w.w.w.w.w.w.w.w.w.",
"q.:.q.:.q.:.:.1 1 X   % = % 4.4.1 1 1 1 = = 1 = 1 = % .     . q.:.1 :.1 X X X X X X X   , x.w.:.:.  % 4.x.w.q.4.q.4.q.:.4.:.4.4.",
"q.4.:.q.:.q.q.1 = X   % = % , = = = = % % % X .             . :.1 X X X                 , x.q.q.:.  % 4.x.q.:.4.:.4.:.4.3 3 :.:.",
"q.:.q.:.q.:.:.1 = X   % = % . . . .                         . X = X         . . . . . . :.x.q.q.:.  % :.k.:.q.4.q.4.q.:.4.:.4.4.",
":.q.3 3 :.:.q.1 = X   X = = % X                 % % % % % % % :.:.4.q.q.4.:.:.3 = . X , k.x.q.:.3   % :.k.q.:.4.:.4.:.4.3 3 :.:.",
":.:.3 3 :.q.:., % X   X :.x.x.x.x.k.w.q.:., X % , 3 q.q.k.k.z.x.x.x.x.x.x.x.z.4.,   X 3 x.k.q.q.1   % 3 k.q.4.:.q.:.q.:.3 3 :.4.",
":.:.q.q.:.:.:., % X   X x.k.q.4.4.4.q.4.4.X = % 3 z.n.n.x.k.w.g.k.k.k.k.k.k.k.1 =   X :.x.w.4.:.1   % 1 k.:.q.4.:.4.:.:.q.:.q.:.",
"4.q.:.:.q.:.1 = X X   X x.q.:.4.q.q.4.4.q.  = % 4.n.k.:.7.S e.$.C e.5.9.4.:.:., %   X :.n.q.:.q.=   % % :.1 , = = = , , 1 3 :.:.",
", , , , , = % X X X   X x.q.q.q.:.q.:.q.,   % % 4.n.0.t.#.W d d g T _ O.7.:.q.= %   X :.n.q.q.4.=   =   X X % % % % % % % = = = ",
"= % % X X X         . X x.:.q.:.q.w.:.3 ,   % % 4.n.Z ` p p d R U a p E @.<.:.= %   X :.n.:.q.:.=   = X                   X X % ",
"            . . . % % % x.q.4.:.q.:.q.3 ,   X % 4.b. .d p _ X.V o.H E p E r.2.= %   X :.n.q.q.:.=   = X X X X X X X . . .       ",
"% , , 1 :.4.:.:.:.:.%   x.q.3 4.:.q.:.3 , X   % 4.v./ p E D 2 :.3 >.*.s p { 8.= %   X :.n.4.q.q.=   = % % % = = = = = = = X X X ",
", :.w.x.x.x.z.z.z.q.1   x.q.q.:.3 :.q.:., X   % :.j.) p T y.-.q.3 2 Z [ { e.2.= X   X :.x.:.:.q.=   % q.x.x.w.:., = % % % % % = ",
", w.z.z.k.w.q.q.4.q.%   n.4.4.q.3 :.q.4.1 %   % 3 l.] p p P V A n 2 0.-.0.-.3 = X . X :.x.q.4.:.=   % x.:.:.w.x.x.x.x.x.x.4.X = ",
", x.w.q.q.:.q.4.q.:.1   n.4.q.4.q.q.:.q.1 %   X = g.i.E p p T ' P %.N v 2.0.1 = X . X :.x.:.q.:.=   % x.:.:.q.q.:.:.q.:.:.3 X = ",
", x.w.4.:.q.:.q.:.q.1   n.4.:.4.q.:.q.:., =   . = q.c.#.^ g p p p p I G &.<.1 % . . % :.z.q.q.:.=   % x.q.q.:.:.q.q.:.q.:., X % ",
", x.q.4.q.:.q.q.3 q.=   x.q.q.q.4.:.4.q., =   . = ;.n.s.e.X.*.` Y a p p d %.< %   . % :.z.q.:.q.=   % z.q.:.q.q.:.:.q.:.q., X % ",
", x.w.q.:.:.q.4.q.:.=   x.k.3 4.3 q.q.4., =     & 1 z.k.q.>.M D +.| ~ g p R l X   . % :.z.:.q.= =   % k.q.q.q.:.q.:.:.q.q.= X % ",
", x.w.:.q.q.:.q.:.q.=   k.x.:.4.q.:.4.:., =     & : u.h.y.3.q.;.q.>.e.R p p j X   X % 3 q.3 = X X X % q.q.:.q.q.:.q.:.:.q.= X X ",
", x.w.q.q.:.q.4.q.:.=   w.x.3 q.:.:.:.q.1 =     X k ! ( ' ,.m , , = * w p p $ o   X % = X X X X % %   1 = % = = = = = = = = X X ",
", x.w.:.q.q.:.q.3 q.=   4.x.4.3 q.q.:.:.1 =     X > e a p c > ; # @ 5 r p q O     X % = % % = = = = =                         X ",
", x.w.:.:.4.q.:.q.:.=   3 x.q.4.q.:.:.q., =     . & z t p u 9 7 7 8 t p u 6 + . . X % = = % % % % % % % % % X X X X X X X X X X ",
", x.w.q.q.:.4.q.4.q.=   = n.:.q.:.:.q.:., =     . % - z w i p p p p p e x ; % % % % % = = 3 3 3 3 3 3 3 3 3 3 3 3 3 3 3 3 3 X = ",
", x.w.:.:.q.:.q.:.1 =   % n.q.:.:.3 :.q.1 = .   . X , b N J H G G K H N n 3 3 3 :.:.4.4.q.w.w.k.k.k.k.k.k.w.k.k.k.k.k.k.k.3 X = ",
", z.w.q.q.4.q.:.q.=   . % n.q.:.q.:.:.:., = .     X 3 k.k.f.s.p.p.s.d.k.k.k.k.k.k.k.z.x.x.n.n.n.n.n.n.n.n.n.n.n.x.x.z.z.4., . % ",
", z.w.4.q.:.q.q.:.=   . % n.:.q.3 4.:.q., = X       3 k.z.n.n.n.n.n.n.x.n.n.x.n.n.n.n.n.n.x.x.z.k.w.k.k.k.q.k.k.w.k.k.w.3 = . % ",
", k.w.q.:.q.:.:.:.=   X % x.q.q.:.q.:.:., = X       3 k.z.w.k.k.k.k.k.q.k.k.q.k.k.k.w.w.q.4.4.:.:.q.:.q.:.:.:.q.:.q.:.q.1 = . X ",
"% k.:.:.q.:.1 1 1 =   X % z.:.:.q.:.q.:.1 = X       , k.x.w.:.:.:.:.:.:.q.:.q.q.4.:.4.q.q.q.4.3 4.:.q.q.4.:.q.:.q.q.q.:.1 = . X ",
"% w.q.q.q.:.= = =   . X % w.q.:.:.q.:.:.1 = X       % k.x.k.:.4.:.q.:.q.:.4.q.:.:.4.q.q.:.4.:.4.:.:.3 :.4.4.:.q.:.q.:.q.1 = . X ",
"% 3 3 3 = = = = =   . X % 4.4.q.:.:.:.1 , = X       . w.x.z.q.q.:.:.:.:.3 :.:.q.:.4.:.q.4.3 :.:.q.:.:.q.:.3 3 :.3 4.:.4.1 =   X ",
"% X       = = = =   X % % 3 , , , , , , = = X       . q.x.z.:.:.q.:.q.:.:.q.:.3 3 4.4.:.q.:.q.4.:.q.:.:.3 :.:.:.q.:.3 3 1 =   X ",
"= = = % X     .   . X % X X X X X X X X X X X       . :.z.w.w.:.:.q.:.q.3 :.:.4.3 4.:.4.3 q.:.:.3 :.:.:.:.q.:.3 :.4.3 3 1 =   X ",
"% % % % % % % . . . X % X X                         . :.4.1 1 1 1 1 1 1 q.:.q.q.:.:.3 :.:.:.3 :.:.q.:.q.:.:.q.:.:.:.:.4.1 =   X ",
"% 3 q.q.q.q.4.:., % % = X X . . . . . . . . . . . . X = % X X . . . . . = 1 1 3 :.3 3 3 3 3 3 3 3 3 3 3 3 3 3 3 3 3 3 3 , =   X ",
"% q.k.x.x.x.x.x.k.q.q.:.1 , = % X X X X X X X X X X % = % % X X X X X X . % = = = = = = = = = = = = = = = = = = = = = = =   . X ",
"% q.x.q.q.:.k.z.x.x.x.k.q.q.q.q.q.q.q.q.:.:.:.3 3 1 , , = = % % % % % X X . . . . . . . . . . . . .                       . X % ",
"% q.x.q.q.q.w.w.:.q.k.x.x.x.x.x.x.x.x.x.x.x.x.z.z.k.k.q.q.q.q.q.:.% = % X X X X X X X X X . . . . . . . . . . . . . . . X X % % ",
"% q.x.q.:.q.3 3 q.4.:.3 q.:.q.:.q.:.q.q.:.q.:.q.q.w.k.x.x.x.z.k.3 X % = % % % X X X X X X X X X X X X X X X X X X X X X % % % = ",
"% q.z.q.q.q.4.q.:.4.:.4.q.:.:.q.3 3 :.q.3 :.:.:.q.:.q.:.q.q.q.3 ,   X = % q.x.x.q.3 % % % = = = % % % % % % % % % % % % = = = = ",
"% q.k.q.:.q.3 3 4.q.:.q.q.4.:.3 q.3 :.3 4.:.q.:.q.:.q.:.q.q.q., =   X % % x.q.q.x.x.x.x.w.= = % w.x.x.x.x.x.x.x.z.k.w.4.3 % % = ",
"% q.:., , , , , , , , , , , , , , , , , , , , , , , , , , , , = = X   X % x.w.w.w.w.w.w.w., = 3 x.q.q.q.:.q.:.q.4.q.:.q.x.4.  = ",
"% :., X X X X X X X X X X X X X X X X X X X X X X X X X X X X X X X   . % w.q.w.w.4., 4.:., % w.q.:.q.:.q.q.q.:.q.:.q.:.q.=   = ",
"% X                                                                   . % X % X = , , , , , % x.q.4.4.q.q.4.4.q.4.q.q.:.:.=   = ",
"= % X X X . . . . . . . . . . . . . . . . . . . . . . . . . . . . . . . X = = X X           X = = = = = = = = = = = = = = =   = ",
"= = = = % % % % % % % % X X X X X X X X X X X X X X X X X X X X X X X X X = = = = X X X X X X = =                             = ",
"X X X X X X X X X X X X X X X X X X X X X X X X X X X X X X X X X X X X X X X X X X X X X X X X X X X X X X X X X X X X X X X X ",
". . . . . . . . . . . . . . . . . . . . . . . . . . . . . . . . . . . . . . . . . . . . . . . . . . . . . . . . . . . . . . . . ",
"= = = = = = = = = = = = = = = = = = =           = = = = % % % % % % % % = = = = = = = = = = = = = = = = = = = = = = = = = = = = "
};
